<svg width="24" height="21" viewBox="0 0 24 21" fill="none" xmlns="http://www.w3.org/2000/svg">
<path d="M14.713 3.0744L16.1782 0.693848H11.0223L12.4875 3.0744C9.9472 3.911 8.0343 7.44305 8.0343 9.99162C8.0343 12.8997 10.5265 13.425 13.6003 13.425C16.6741 13.425 19.1674 12.8997 19.1674 9.99162C19.1674 7.44305 17.2533 3.911 14.713 3.0744Z" fill="#68E1FD"/>
<path d="M13.6003 13.5423C11.7403 13.5423 10.5113 13.3449 9.61239 12.9043C8.47147 12.3438 7.91687 11.3909 7.91687 9.99145C7.91687 8.71187 8.3998 7.15617 9.20937 5.8296C10.0589 4.4337 11.1563 3.43965 12.3114 3.0096L10.9213 0.754773C10.9105 0.736908 10.9046 0.716463 10.9042 0.69555C10.9039 0.674637 10.9091 0.654014 10.9194 0.63581C10.9297 0.617607 10.9447 0.602482 10.9628 0.591998C10.9809 0.581514 11.0015 0.576052 11.0224 0.576174H16.1783C16.1991 0.57621 16.2196 0.581777 16.2375 0.592306C16.2555 0.602836 16.2703 0.617948 16.2805 0.636098C16.2908 0.653961 16.2963 0.674223 16.2963 0.694848C16.2963 0.715474 16.2908 0.735736 16.2805 0.753598L14.8893 3.01077C16.0443 3.43965 17.1418 4.4337 17.9925 5.83077C18.7997 7.15735 19.285 8.71305 19.285 9.99262C19.285 13.1205 16.4098 13.5423 13.6003 13.5423ZM11.2327 0.811174L12.5875 3.01195C12.5969 3.02709 12.6028 3.04418 12.6046 3.06193C12.6065 3.07967 12.6043 3.0976 12.5982 3.11436C12.592 3.13112 12.5822 3.14627 12.5693 3.15866C12.5565 3.17104 12.541 3.18034 12.524 3.18585C11.3702 3.56537 10.2633 4.54767 9.40795 5.9518C8.62187 7.2443 8.15187 8.753 8.15187 9.99145C8.15187 12.9054 10.7698 13.3073 13.6003 13.3073C16.4309 13.3073 19.05 12.9054 19.05 9.99145C19.05 8.753 18.58 7.24312 17.7939 5.9518C16.9385 4.5418 15.8317 3.56537 14.6778 3.18585C14.6608 3.18034 14.6454 3.17104 14.6325 3.15866C14.6197 3.14627 14.6098 3.13112 14.6037 3.11436C14.5976 3.0976 14.5954 3.07967 14.5972 3.06193C14.5991 3.04418 14.6049 3.02709 14.6144 3.01195L15.9703 0.811174H11.2327Z" fill="#093F68"/>
<path d="M14.9409 2.729H12.2572C12.1326 2.729 12.0316 2.83001 12.0316 2.9546C12.0316 3.0792 12.1326 3.1802 12.2572 3.1802H14.9409C15.0655 3.1802 15.1665 3.0792 15.1665 2.9546C15.1665 2.83001 15.0655 2.729 14.9409 2.729Z" fill="#093F68"/>
<path d="M14.9375 3.29753H12.2573C12.1663 3.29753 12.079 3.26138 12.0147 3.19704C11.9503 3.13269 11.9142 3.04542 11.9142 2.95443C11.9142 2.86343 11.9503 2.77616 12.0147 2.71182C12.079 2.64748 12.1663 2.61133 12.2573 2.61133H14.9375C15.0285 2.61133 15.1157 2.64748 15.1801 2.71182C15.2444 2.77616 15.2806 2.86343 15.2806 2.95443C15.2806 3.04542 15.2444 3.13269 15.1801 3.19704C15.1157 3.26138 15.0285 3.29753 14.9375 3.29753ZM12.2573 2.84633C12.2286 2.84633 12.2011 2.85772 12.1808 2.87799C12.1606 2.89826 12.1492 2.92576 12.1492 2.95443C12.1492 2.9831 12.1606 3.01059 12.1808 3.03087C12.2011 3.05114 12.2286 3.06253 12.2573 3.06253H14.9375C14.9661 3.06253 14.9936 3.05114 15.0139 3.03087C15.0342 3.01059 15.0456 2.9831 15.0456 2.95443C15.0456 2.92576 15.0342 2.89826 15.0139 2.87799C14.9936 2.85772 14.9661 2.84633 14.9375 2.84633H12.2573Z" fill="#093F68"/>
<path d="M13.472 4.68027L14.0484 2.99602C14.0824 2.89655 14.0294 2.78833 13.9299 2.75429L13.8632 2.73147C13.7637 2.69743 13.6555 2.75047 13.6215 2.84994L13.0451 4.53419C13.0111 4.63365 13.0641 4.74188 13.1636 4.77591L13.2303 4.79874C13.3298 4.83277 13.438 4.77973 13.472 4.68027Z" fill="#093F68"/>
<path d="M13.2924 4.92481C13.2584 4.92477 13.2246 4.91881 13.1925 4.90719L13.1244 4.88486C13.0472 4.8582 12.9838 4.80198 12.9481 4.72859C12.93 4.6924 12.9195 4.65292 12.917 4.61253C12.9146 4.57214 12.9204 4.53168 12.934 4.49359L13.5098 2.80864C13.5228 2.77026 13.5432 2.73484 13.5699 2.7044C13.5966 2.67397 13.6291 2.64913 13.6655 2.63133C13.7019 2.61352 13.7414 2.60309 13.7819 2.60065C13.8223 2.59821 13.8628 2.60381 13.9011 2.61711L13.968 2.64061C14.0063 2.65358 14.0416 2.67397 14.0719 2.70062C14.1023 2.72726 14.127 2.75964 14.1448 2.79588C14.1626 2.83213 14.1731 2.87153 14.1756 2.91183C14.1781 2.95212 14.1727 2.99253 14.1596 3.03071L13.5826 4.71566C13.5699 4.75391 13.5496 4.78921 13.5229 4.81948C13.4963 4.84975 13.4638 4.87438 13.4275 4.89191C13.3856 4.91304 13.3394 4.9243 13.2924 4.92481ZM13.8012 2.83684C13.7902 2.83681 13.7794 2.83921 13.7695 2.84389C13.7609 2.8479 13.7533 2.85361 13.747 2.86069C13.7407 2.86776 13.736 2.87604 13.733 2.88501L13.1561 4.56996C13.149 4.58768 13.149 4.60747 13.1561 4.62519C13.1601 4.63374 13.1658 4.64138 13.1729 4.64765C13.18 4.65391 13.1883 4.65866 13.1972 4.66161L13.2654 4.68511C13.274 4.68911 13.2835 4.69119 13.293 4.69119C13.3025 4.69119 13.312 4.68911 13.3206 4.68511C13.3292 4.6811 13.3368 4.67538 13.3431 4.66831C13.3493 4.66124 13.3541 4.65296 13.357 4.64399L13.934 2.95904C13.9371 2.95009 13.9384 2.94061 13.9379 2.93114C13.9373 2.92168 13.9349 2.91241 13.9308 2.90389C13.9266 2.89536 13.9208 2.88775 13.9137 2.88148C13.9066 2.87522 13.8983 2.87043 13.8893 2.86739L13.8212 2.84389C13.8145 2.84057 13.8074 2.8382 13.8 2.83684H13.8012Z" fill="#093F68"/>
<path d="M14.9663 4.58701L14.39 2.90275C14.356 2.80329 14.2477 2.75025 14.1483 2.78428L14.0816 2.80711C13.9821 2.84114 13.9291 2.94937 13.9631 3.04883L14.5394 4.73308C14.5735 4.83255 14.6817 4.88559 14.7811 4.85155L14.8478 4.82873C14.9473 4.79469 15.0004 4.68647 14.9663 4.58701Z" fill="#093F68"/>
<path d="M14.7213 4.98497C14.6572 4.98512 14.5947 4.96511 14.5426 4.92779C14.4905 4.89047 14.4515 4.83772 14.431 4.77699L13.8541 3.09204C13.8279 3.01506 13.8332 2.93083 13.8688 2.85774C13.9045 2.78464 13.9676 2.72864 14.0445 2.70194L14.1126 2.67844C14.1897 2.65226 14.2741 2.65772 14.3472 2.69362C14.4203 2.72952 14.4762 2.79293 14.5027 2.86997L15.0796 4.55492C15.0928 4.5931 15.0982 4.6335 15.0957 4.6738C15.0931 4.7141 15.0827 4.7535 15.0649 4.78975C15.0471 4.82599 15.0223 4.85837 14.992 4.88501C14.9616 4.91166 14.9263 4.93205 14.8881 4.94502L14.8211 4.96852C14.789 4.97967 14.7552 4.98523 14.7213 4.98497ZM14.2125 2.89699C14.2047 2.89523 14.1967 2.89523 14.189 2.89699L14.1208 2.91932C14.1026 2.92571 14.0877 2.93908 14.0793 2.95648C14.0709 2.97389 14.0698 2.99391 14.0762 3.01214L14.6531 4.69709C14.6561 4.70607 14.6609 4.71436 14.6672 4.72148C14.6735 4.7286 14.6811 4.7344 14.6896 4.73855C14.6981 4.74271 14.7074 4.74513 14.7169 4.74567C14.7263 4.74622 14.7358 4.74489 14.7448 4.74174L14.8129 4.71824C14.8219 4.7152 14.8302 4.71041 14.8373 4.70415C14.8444 4.69788 14.8502 4.69026 14.8544 4.68174C14.8585 4.67322 14.8609 4.66395 14.8615 4.65449C14.862 4.64502 14.8607 4.63554 14.8576 4.62659L14.2806 2.94047C14.2758 2.9262 14.2666 2.9138 14.2544 2.90496C14.2422 2.89612 14.2275 2.89128 14.2125 2.89112V2.89699Z" fill="#093F68"/>
<path d="M13.2443 10.6344V10.2443C13.1021 10.2067 12.9635 10.1761 12.8319 10.1268C12.5731 10.0442 12.3499 9.87648 12.1985 9.65091C12.0734 9.45423 12.0096 9.22478 12.0152 8.99174H12.7755C12.7808 9.12423 12.8298 9.25125 12.9148 9.35303C12.9998 9.45481 13.116 9.52566 13.2455 9.55456V8.52291C13.0927 8.47826 12.9411 8.43714 12.7907 8.38896C12.625 8.34276 12.4733 8.25639 12.3489 8.13751C12.2185 8.00751 12.1322 7.83982 12.1022 7.65811C12.0574 7.43735 12.0741 7.20854 12.1504 6.99659C12.2057 6.84379 12.2943 6.70518 12.4097 6.59078C12.5251 6.47638 12.6645 6.38903 12.8178 6.33506C12.9437 6.29407 13.072 6.26071 13.202 6.23519L13.249 6.22579V5.70996H13.954V5.76049C13.954 5.90736 13.954 6.05541 13.954 6.20229C13.954 6.23871 13.9646 6.25046 13.9998 6.25751C14.2431 6.30407 14.4709 6.41071 14.6625 6.56771C14.8658 6.73344 15.0002 6.96879 15.0397 7.22806C15.0526 7.29856 15.0585 7.37024 15.0679 7.44426H14.2936C14.2918 7.33879 14.2591 7.23616 14.1996 7.14907C14.1401 7.06198 14.0563 6.99426 13.9587 6.95429V7.92249L14.0421 7.94246C14.251 7.98292 14.4545 8.04759 14.6484 8.13516C14.794 8.19852 14.9198 8.30015 15.0122 8.42925C15.1047 8.55835 15.1605 8.7101 15.1736 8.86836C15.2181 9.16332 15.1465 9.46404 14.9739 9.70731C14.8318 9.90547 14.6313 10.0542 14.4005 10.1327C14.2571 10.182 14.1091 10.2149 13.9552 10.2572V10.6344H13.2443ZM13.9575 8.67566V9.56749C14.0729 9.54991 14.1815 9.50207 14.2724 9.42884C14.4369 9.29254 14.4957 8.95884 14.2536 8.80726C14.1577 8.7574 14.0588 8.71345 13.9575 8.67566ZM13.2408 7.75799V6.89201C13.1476 6.93237 13.057 6.97828 12.9693 7.02949C12.7719 7.16226 12.7402 7.52651 12.9928 7.65459C13.0704 7.69454 13.1538 7.72156 13.2408 7.75799Z" fill="white"/>
<path d="M13.9551 10.7519H13.2501C13.2189 10.7519 13.189 10.7395 13.167 10.7175C13.145 10.6954 13.1326 10.6656 13.1326 10.6344V10.3348L13.0891 10.3242C12.9928 10.3007 12.8952 10.2748 12.7989 10.2419C12.5155 10.1513 12.2712 9.96744 12.1056 9.72024C11.9681 9.50432 11.8977 9.2524 11.9035 8.99644C11.9034 8.98098 11.9064 8.96565 11.9123 8.95133C11.9181 8.93702 11.9267 8.924 11.9376 8.91302C11.9486 8.90213 11.9616 8.89351 11.9759 8.88766C11.9902 8.88182 12.0056 8.87885 12.021 8.87894H12.7813C12.8101 8.87873 12.8381 8.88916 12.8597 8.90823C12.8814 8.9273 12.8953 8.95368 12.8988 8.98234C12.9024 9.06353 12.9256 9.14263 12.9666 9.21283C13.0075 9.28303 13.0649 9.34224 13.1338 9.38537V8.61574L13.0785 8.60047C12.9716 8.56992 12.8659 8.53937 12.7613 8.50647C12.5776 8.45408 12.4094 8.35769 12.2713 8.22564C12.1242 8.07862 12.0268 7.88919 11.9928 7.68397C11.9427 7.44201 11.9614 7.19084 12.0469 6.95899C12.1082 6.79071 12.2059 6.63804 12.3331 6.51191C12.4602 6.38577 12.6137 6.28927 12.7824 6.22932C12.874 6.19678 12.9678 6.17125 13.0633 6.15294L13.1373 6.13649V5.71467C13.1373 5.68351 13.1497 5.65362 13.1717 5.63158C13.1937 5.60955 13.2236 5.59717 13.2548 5.59717H13.9598C13.9909 5.59717 14.0208 5.60955 14.0429 5.63158C14.0649 5.65362 14.0773 5.68351 14.0773 5.71467V5.88504C14.0773 5.97552 14.0773 6.06717 14.0773 6.15764C14.3219 6.21138 14.5503 6.32254 14.7435 6.48194C14.9673 6.66645 15.1161 6.92634 15.1618 7.21279C15.1712 7.26332 15.1759 7.31384 15.1818 7.36672L15.19 7.43487C15.192 7.45154 15.1905 7.46845 15.1854 7.48447C15.1803 7.50048 15.1719 7.51522 15.1606 7.52769C15.1495 7.54001 15.1359 7.54984 15.1207 7.55652C15.1055 7.5632 15.0891 7.56659 15.0725 7.56647H14.2994C14.2694 7.56652 14.2405 7.55511 14.2187 7.53458C14.1968 7.51405 14.1837 7.48594 14.1819 7.45602C14.1795 7.3575 14.1439 7.26268 14.0808 7.18694V7.82967C14.2955 7.87163 14.5045 7.93868 14.7036 8.02942C14.8662 8.10125 15.0066 8.2155 15.11 8.3602C15.2133 8.5049 15.2759 8.67474 15.2911 8.85192C15.3349 9.14661 15.2735 9.44733 15.1177 9.7013C14.962 9.95526 14.7217 10.1463 14.4392 10.2408C14.337 10.276 14.2312 10.3042 14.129 10.3301L14.0738 10.3442V10.632C14.0741 10.6478 14.0712 10.6634 14.0654 10.678C14.0596 10.6926 14.0508 10.7059 14.0398 10.7171C14.0287 10.7282 14.0155 10.7371 14.001 10.7431C13.9864 10.7491 13.9708 10.7521 13.9551 10.7519ZM13.3676 10.5169H13.8376V10.2572C13.8366 10.2308 13.8445 10.2049 13.8601 10.1836C13.8757 10.1623 13.8979 10.1468 13.9234 10.1397L14.0691 10.1021C14.1713 10.0751 14.2676 10.0504 14.3616 10.0175C14.5701 9.94763 14.7511 9.81354 14.8786 9.63447C15.0347 9.4157 15.0989 9.14445 15.0572 8.87894C15.0466 8.74054 14.9983 8.60769 14.9175 8.4948C14.8367 8.38191 14.7265 8.2933 14.599 8.23857C14.4112 8.15348 14.214 8.09116 14.0115 8.05292C13.9903 8.05292 13.9692 8.04352 13.9504 8.03882L13.9257 8.03294C13.8994 8.02674 13.8761 8.01167 13.8596 7.99027C13.8431 7.96887 13.8345 7.94244 13.8352 7.91544V6.95194C13.8354 6.93217 13.8405 6.91276 13.8502 6.89551C13.8598 6.87826 13.8737 6.86372 13.8905 6.85324C13.9077 6.84184 13.9276 6.83518 13.9483 6.83394C13.9689 6.83271 13.9895 6.83693 14.008 6.84619C14.1074 6.8873 14.1951 6.95255 14.263 7.03605C14.3309 7.11955 14.3769 7.21866 14.3969 7.32442H14.9374C14.9374 7.29857 14.9303 7.27154 14.9256 7.24569C14.8901 7.01475 14.7699 6.80531 14.5884 6.65819C14.4118 6.51338 14.2018 6.4152 13.9774 6.37267C13.9366 6.36737 13.8993 6.34664 13.8733 6.31473C13.8473 6.28283 13.8345 6.24217 13.8376 6.20112C13.8376 6.09419 13.8376 5.98727 13.8376 5.88034V5.82747H13.3676V6.22579C13.3681 6.25345 13.3588 6.28039 13.3414 6.30189C13.324 6.32338 13.2996 6.33804 13.2724 6.34329H13.2548H13.2325L13.1091 6.37149C13.0246 6.38809 12.9414 6.41047 12.86 6.43847C12.7227 6.48711 12.5979 6.56555 12.4945 6.66814C12.391 6.77073 12.3116 6.89493 12.2619 7.03184C12.1926 7.22423 12.178 7.43206 12.2196 7.63227C12.2441 7.79011 12.3187 7.93591 12.4323 8.04822C12.5437 8.15374 12.6792 8.23039 12.8271 8.27147C12.9305 8.30437 13.0339 8.33374 13.1385 8.36312L13.2795 8.40424C13.3047 8.41157 13.3267 8.42712 13.342 8.44841C13.3573 8.46971 13.3651 8.49552 13.3641 8.52174V9.55339C13.3647 9.57177 13.361 9.59003 13.3533 9.60672C13.3456 9.62341 13.3341 9.63806 13.3197 9.64949C13.3053 9.66092 13.2884 9.66881 13.2704 9.67252C13.2524 9.67624 13.2338 9.67568 13.216 9.67089C13.0817 9.64087 12.9594 9.57171 12.8645 9.47215C12.7695 9.3726 12.7062 9.24712 12.6826 9.11159H12.1432C12.1549 9.28147 12.2095 9.44562 12.3019 9.58864C12.4382 9.79312 12.6406 9.94453 12.8753 10.0175C12.9622 10.0469 13.0515 10.0704 13.1467 10.0939L13.2806 10.1291C13.3063 10.136 13.3288 10.1514 13.3446 10.1727C13.3604 10.1941 13.3685 10.2201 13.3676 10.2466V10.5169ZM13.9633 9.69439C13.9321 9.69439 13.9023 9.68201 13.8802 9.65998C13.8582 9.63794 13.8458 9.60806 13.8458 9.57689V8.68037C13.8458 8.66071 13.8508 8.64137 13.8602 8.62413C13.8697 8.60688 13.8833 8.59228 13.8999 8.58167C13.9163 8.57112 13.9351 8.56485 13.9546 8.56341C13.9741 8.56197 13.9937 8.56542 14.0115 8.57344L14.1067 8.61457C14.1807 8.64264 14.2522 8.67683 14.3205 8.71679C14.3836 8.75466 14.4365 8.80748 14.4744 8.87059C14.5123 8.9337 14.5341 9.00517 14.5379 9.07869C14.5438 9.16295 14.5302 9.24744 14.4979 9.32552C14.4657 9.40361 14.4159 9.47316 14.3522 9.52872C14.246 9.61601 14.1181 9.67286 13.9821 9.69322L13.9633 9.69439ZM14.0808 8.85779V9.42179C14.1235 9.40271 14.1631 9.37736 14.1983 9.34659C14.2329 9.3149 14.2599 9.27586 14.2774 9.23234C14.2949 9.18882 14.3024 9.14194 14.2994 9.09514C14.2981 9.05904 14.2878 9.02384 14.2693 8.99281C14.2508 8.96179 14.2248 8.93595 14.1936 8.91772C14.1557 8.89328 14.116 8.87168 14.0749 8.85309L14.0808 8.85779ZM13.2466 7.88019C13.2312 7.88001 13.216 7.87681 13.2019 7.87079L13.122 7.83907C13.0644 7.81674 13.0045 7.79324 12.9458 7.76387C12.8747 7.72803 12.8146 7.67381 12.7716 7.60686C12.7286 7.53991 12.7044 7.46267 12.7014 7.38317C12.6951 7.29706 12.711 7.21078 12.7476 7.1326C12.7842 7.05442 12.8403 6.98695 12.9105 6.93667C12.973 6.89763 13.0382 6.86308 13.1056 6.83327C13.1353 6.82073 13.1647 6.80663 13.1937 6.79097C13.2117 6.78191 13.2317 6.77762 13.2518 6.77851C13.2719 6.77941 13.2914 6.78545 13.3085 6.79606C13.3256 6.80668 13.3397 6.82151 13.3494 6.83914C13.3592 6.85676 13.3642 6.87659 13.3641 6.89672V7.76269C13.3641 7.78194 13.3594 7.8009 13.3504 7.8179C13.3414 7.83491 13.3283 7.84944 13.3124 7.86022C13.2907 7.87282 13.2656 7.87817 13.2407 7.87549L13.2466 7.88019ZM13.1291 7.08237C13.0984 7.09684 13.0689 7.11374 13.0409 7.13289C13.0051 7.16007 12.9767 7.19587 12.9584 7.23695C12.9402 7.27804 12.9326 7.32308 12.9364 7.36789C12.9376 7.40651 12.9491 7.44411 12.9698 7.47676C12.9904 7.50941 13.0195 7.53592 13.0539 7.55354C13.0785 7.56647 13.1044 7.57704 13.1314 7.58879L13.1291 7.08237Z" fill="#093F68"/>
<path d="M4.1145 13.3274C4.1145 13.3274 6.25065 10.6907 7.56783 10.2019C8.02255 10.0327 13.9128 11.1125 14.2806 11.6941C14.6484 12.2757 14.4134 12.9608 13.1714 12.9314C12.4703 12.9206 11.7716 12.8475 11.0834 12.7128C11.0834 12.7128 13.5509 13.4872 14.2559 13.4249C14.9609 13.3626 18.8854 12.3357 19.1228 12.6388C19.3601 12.942 19.7573 13.8138 18.5823 14.2286C17.4073 14.6434 15.0502 15.6915 14.3523 15.7279C13.6543 15.7643 7.6677 16.991 7.6677 16.991L4.1145 13.3274Z" fill="#FFC9B0"/>
<path d="M7.66186 17.1086C7.64603 17.1085 7.63038 17.1052 7.61584 17.099C7.6013 17.0927 7.58818 17.0836 7.57726 17.0721L4.03111 13.4097C4.01096 13.389 3.9991 13.3617 3.9978 13.3329C3.9965 13.304 4.00585 13.2757 4.02406 13.2534C4.11219 13.1453 6.19546 10.5861 7.52791 10.0915C7.83694 9.97395 9.80976 10.3124 10.9801 10.5509C12.1504 10.7894 14.1361 11.2453 14.3805 11.6319C14.5826 11.9515 14.6155 12.2864 14.4639 12.5507C14.3288 12.7857 13.9939 13.0701 13.1714 13.0489C12.9752 13.0489 12.7884 13.036 12.6133 13.0254C13.2584 13.1911 13.9364 13.3356 14.2466 13.3074C14.4816 13.2875 15.0691 13.1582 15.7682 13.0078C18.1628 12.4908 19.0441 12.3463 19.2156 12.566C19.3872 12.7857 19.5775 13.2134 19.4671 13.5953C19.3707 13.9255 19.0864 14.1758 18.6223 14.3391C18.2498 14.4695 17.7575 14.6657 17.2369 14.8725C16.0619 15.3425 14.854 15.8196 14.3558 15.8454C13.6708 15.8807 7.74881 17.0933 7.68889 17.1062L7.66186 17.1086ZM4.27199 13.3274L7.70181 16.8689C8.37861 16.7302 13.6685 15.6516 14.3406 15.6163C14.8 15.5928 16.0467 15.097 17.1465 14.6599C17.6693 14.4519 18.164 14.2557 18.54 14.1229C18.916 13.9901 19.1639 13.788 19.238 13.5354C19.3226 13.244 19.1816 12.9185 19.0335 12.7246C18.7903 12.6013 16.8562 13.0196 15.814 13.2452C15.109 13.3967 14.5086 13.5272 14.2642 13.5495C13.5427 13.6129 11.1493 12.8633 11.0482 12.8316C11.0191 12.8226 10.9946 12.8027 10.9798 12.7761C10.9651 12.7494 10.9613 12.7181 10.9692 12.6886C10.9771 12.6592 10.9962 12.634 11.0223 12.6184C11.0484 12.6027 11.0796 12.5979 11.1093 12.6048C11.7903 12.7357 12.4816 12.8057 13.175 12.8139C13.7272 12.8269 14.115 12.6964 14.2607 12.4356C14.3652 12.2488 14.3382 12.002 14.1831 11.7576C13.8706 11.2641 8.07311 10.142 7.61016 10.3124C6.46454 10.7424 4.64094 12.8786 4.27199 13.3274Z" fill="#093F68"/>
<path d="M3.4906 13.071L4.6139 12.0957L8.58305 16.9908L7.38925 17.9143L3.4906 13.071Z" fill="#68E1FD"/>
<path d="M7.38924 18.0274C7.37159 18.0273 7.35419 18.0232 7.33832 18.0155C7.32245 18.0078 7.30853 17.9966 7.29759 17.9827L3.39894 13.1452C3.3799 13.1216 3.37074 13.0915 3.37337 13.0613C3.37599 13.0311 3.39021 13.0031 3.41304 12.9831L4.53634 12.0067C4.54821 11.9964 4.56202 11.9886 4.57696 11.9838C4.59189 11.9789 4.60765 11.9771 4.62329 11.9785C4.63903 11.9799 4.65433 11.9845 4.66826 11.9919C4.68219 11.9994 4.69447 12.0096 4.70436 12.0219L8.67469 16.917C8.68455 16.929 8.69191 16.9429 8.69634 16.9579C8.70078 16.9728 8.70221 16.9884 8.70054 17.0039C8.69882 17.0196 8.69398 17.0347 8.68631 17.0484C8.67865 17.0621 8.6683 17.0742 8.65589 17.0838L7.46091 18.0074C7.43982 18.0216 7.41466 18.0286 7.38924 18.0274ZM3.65744 13.0924L7.41744 17.7571L8.41619 16.9699L4.59744 12.2699L3.65744 13.0924Z" fill="#093F68"/>
<path d="M8.03427 17.8193L3.8266 12.3696L0.407349 15.0745L4.75367 20.5559L8.03427 17.8193Z" fill="white"/>
<path d="M4.75371 20.6733H4.74196C4.72642 20.6718 4.71136 20.6671 4.69764 20.6596C4.68392 20.6522 4.67182 20.642 4.66206 20.6299L0.314563 15.1485C0.295351 15.1241 0.286545 15.0932 0.290067 15.0624C0.293589 15.0315 0.309152 15.0034 0.333363 14.984L3.75261 12.2815C3.76491 12.2717 3.77904 12.2644 3.79418 12.2602C3.80931 12.256 3.82515 12.2548 3.84074 12.2568C3.85616 12.2587 3.87106 12.2636 3.88457 12.2712C3.89809 12.2789 3.90994 12.2892 3.91946 12.3015L8.12244 17.7476C8.14106 17.7716 8.14963 17.802 8.14635 17.8322C8.14306 17.8625 8.12817 17.8902 8.10482 17.9097L4.83244 20.6463C4.81037 20.6646 4.78237 20.6742 4.75371 20.6733ZM0.573063 15.0897L4.77134 20.3855L7.87216 17.8005L3.80666 12.5353L0.573063 15.0897Z" fill="#093F68"/>
<path d="M5.8347 18.0825C6.13646 18.0825 6.38108 17.8379 6.38108 17.5361C6.38108 17.2344 6.13646 16.9897 5.8347 16.9897C5.53295 16.9897 5.28833 17.2344 5.28833 17.5361C5.28833 17.8379 5.53295 18.0825 5.8347 18.0825Z" fill="#093F68"/>
<path d="M5.83477 18.1998C5.70347 18.1998 5.57512 18.1609 5.46594 18.0879C5.35677 18.015 5.27168 17.9113 5.22143 17.79C5.17119 17.6687 5.15804 17.5352 5.18365 17.4064C5.20927 17.2777 5.2725 17.1594 5.36534 17.0665C5.45819 16.9737 5.57648 16.9104 5.70526 16.8848C5.83404 16.8592 5.96752 16.8724 6.08883 16.9226C6.21013 16.9729 6.31382 17.0579 6.38677 17.1671C6.45971 17.2763 6.49865 17.4046 6.49865 17.5359C6.49834 17.7119 6.42829 17.8806 6.30386 18.005C6.17943 18.1295 6.01075 18.1995 5.83477 18.1998ZM5.83477 17.1082C5.7499 17.1082 5.66694 17.1334 5.59638 17.1806C5.52583 17.2278 5.47086 17.2948 5.43843 17.3733C5.40601 17.4517 5.39758 17.538 5.41423 17.6212C5.43087 17.7044 5.47184 17.7809 5.53193 17.8408C5.59203 17.9007 5.66856 17.9415 5.75183 17.9579C5.8351 17.9743 5.92137 17.9657 5.99971 17.933C6.07806 17.9004 6.14496 17.8452 6.19194 17.7745C6.23893 17.7039 6.26388 17.6208 6.26365 17.5359C6.26334 17.4224 6.21802 17.3136 6.13762 17.2334C6.05722 17.1533 5.94832 17.1082 5.83477 17.1082Z" fill="#093F68"/>
<path d="M5.83466 2.00146L4.25781 4.03069H5.04036V9.12314H6.62896V4.03069H7.41151L5.83466 2.00146Z" fill="#70CC40"/>
<path d="M6.62896 9.24176H5.04036C5.0092 9.24176 4.97931 9.22938 4.95728 9.20735C4.93524 9.18531 4.92286 9.15543 4.92286 9.12426V4.14814H4.25781C4.23579 4.14818 4.2142 4.14204 4.1955 4.1304C4.1768 4.11877 4.16175 4.10211 4.15206 4.08234C4.14364 4.06336 4.1404 4.04248 4.14267 4.02184C4.14494 4.0012 4.15264 3.98153 4.16499 3.96484L5.74184 1.92974C5.75282 1.91559 5.76689 1.90413 5.78298 1.89625C5.79907 1.88837 5.81675 1.88428 5.83466 1.88428C5.85258 1.88428 5.87025 1.88837 5.88634 1.89625C5.90243 1.90413 5.9165 1.91559 5.92749 1.92974L7.50434 3.95896C7.51668 3.97566 7.52438 3.99533 7.52665 4.01597C7.52892 4.03661 7.52568 4.05748 7.51726 4.07646C7.50757 4.09624 7.49252 4.11289 7.47382 4.12453C7.45512 4.13616 7.43353 4.14231 7.41151 4.14226H6.74646V9.11839C6.74726 9.13431 6.74481 9.15022 6.73926 9.16516C6.73372 9.1801 6.72519 9.19376 6.7142 9.2053C6.7032 9.21684 6.68998 9.22602 6.67533 9.23229C6.66067 9.23856 6.6449 9.24178 6.62896 9.24176ZM5.15786 9.00676H6.51146V4.03064C6.51146 3.99947 6.52384 3.96959 6.54588 3.94755C6.56791 3.92552 6.5978 3.91314 6.62896 3.91314H7.17181L5.83466 2.19294L4.49751 3.91314H5.04036C5.07152 3.91314 5.10141 3.92552 5.12345 3.94755C5.14548 3.96959 5.15786 3.99947 5.15786 4.03064V9.00676Z" fill="#093F68"/>
<path d="M18.0805 16.0366L16.7798 17.7098H17.4249V20.1291H18.735V17.7098H19.3812L18.0805 16.0366Z" fill="#70CC40"/>
<path d="M18.7351 20.2468H17.425C17.3938 20.2468 17.3639 20.2344 17.3419 20.2124C17.3198 20.1903 17.3075 20.1605 17.3075 20.1293V17.8275H16.7799C16.7579 17.8275 16.7363 17.8214 16.7176 17.8097C16.6989 17.7981 16.6838 17.7814 16.6741 17.7617C16.6646 17.7419 16.6607 17.7199 16.663 17.6981C16.6653 17.6763 16.6736 17.6556 16.6871 17.6383L17.9925 15.9639C18.0035 15.9498 18.0175 15.9383 18.0336 15.9304C18.0497 15.9226 18.0674 15.9185 18.0853 15.9185C18.1032 15.9185 18.1209 15.9226 18.137 15.9304C18.1531 15.9383 18.1672 15.9498 18.1781 15.9639L19.4789 17.6383C19.4921 17.6557 19.5003 17.6765 19.5023 17.6983C19.5044 17.7201 19.5003 17.7421 19.4906 17.7617C19.481 17.7813 19.4661 17.7978 19.4477 17.8094C19.4292 17.821 19.4079 17.8273 19.386 17.8275H18.8573V20.1293C18.8573 20.1451 18.8541 20.1608 18.8479 20.1754C18.8417 20.1899 18.8326 20.2031 18.8212 20.2141C18.8098 20.2251 18.7963 20.2336 18.7815 20.2392C18.7667 20.2449 18.7509 20.2474 18.7351 20.2468ZM17.5425 20.0118H18.6176V17.71C18.6176 17.6788 18.63 17.6489 18.652 17.6269C18.674 17.6048 18.7039 17.5925 18.7351 17.5925H19.1405L18.083 16.2271L17.0255 17.5925H17.4308C17.462 17.5925 17.4919 17.6048 17.5139 17.6269C17.536 17.6489 17.5483 17.6788 17.5483 17.71L17.5425 20.0118Z" fill="#093F68"/>
<path d="M13.0269 16.6538L12.1187 17.8229H12.5699V19.5114H13.484V17.8229H13.9352L13.0269 16.6538Z" fill="#70CC40"/>
<path d="M13.4839 19.6289H12.5698C12.5386 19.6289 12.5087 19.6165 12.4867 19.5944C12.4647 19.5724 12.4523 19.5425 12.4523 19.5114V17.9404H12.1174C12.0953 17.9405 12.0736 17.9344 12.0548 17.9227C12.036 17.911 12.0209 17.8943 12.0112 17.8744C12.0015 17.8545 11.9976 17.8323 11.9999 17.8103C12.0023 17.7883 12.0109 17.7674 12.0246 17.75L12.9399 16.5821C12.9509 16.5679 12.965 16.5565 12.981 16.5486C12.9971 16.5407 13.0148 16.5366 13.0327 16.5366C13.0506 16.5366 13.0683 16.5407 13.0844 16.5486C13.1005 16.5565 13.1146 16.5679 13.1256 16.5821L14.0338 17.75C14.0475 17.7675 14.056 17.7884 14.0583 17.8104C14.0606 17.8325 14.0566 17.8547 14.0468 17.8746C14.0371 17.8944 14.022 17.911 14.0033 17.9226C13.9846 17.9343 13.963 17.9404 13.941 17.9404H13.6073V19.5114C13.6073 19.5273 13.6041 19.5431 13.5978 19.5577C13.5916 19.5724 13.5824 19.5856 13.5708 19.5966C13.5593 19.6076 13.5456 19.6161 13.5307 19.6217C13.5158 19.6272 13.4998 19.6297 13.4839 19.6289ZM12.6873 19.3939H13.3664V17.8229C13.3664 17.7917 13.3788 17.7618 13.4008 17.7398C13.4229 17.7178 13.4528 17.7054 13.4839 17.7054H13.6943L13.0269 16.8453L12.3583 17.7054H12.5698C12.6009 17.7054 12.6308 17.7178 12.6529 17.7398C12.6749 17.7618 12.6873 17.7917 12.6873 17.8229V19.3939Z" fill="#093F68"/>
<path d="M2.49776 7.03418L1.50488 8.3114H1.99838V11.518H2.99713V8.3114H3.49063L2.49776 7.03418Z" fill="#70CC40"/>
<path d="M2.99711 11.6354H1.99836C1.9672 11.6354 1.93731 11.623 1.91528 11.601C1.89324 11.579 1.88086 11.5491 1.88086 11.5179V8.42885H1.50486C1.48284 8.4289 1.46125 8.42275 1.44255 8.41112C1.42386 8.39948 1.4088 8.38283 1.39911 8.36305C1.38955 8.34333 1.38568 8.32132 1.38797 8.29952C1.39025 8.27772 1.39859 8.25699 1.41204 8.23968L2.40491 6.96245C2.4159 6.9483 2.42997 6.93685 2.44606 6.92897C2.46215 6.92109 2.47983 6.91699 2.49774 6.91699C2.51565 6.91699 2.53333 6.92109 2.54942 6.92897C2.56551 6.93685 2.57958 6.9483 2.59056 6.96245L3.58227 8.23968C3.59571 8.25699 3.60405 8.27772 3.60633 8.29952C3.60862 8.32132 3.60476 8.34333 3.59519 8.36305C3.58559 8.38265 3.57072 8.39918 3.55225 8.41081C3.53378 8.42243 3.51244 8.42868 3.49062 8.42885H3.11461V11.5179C3.11461 11.5491 3.10224 11.579 3.0802 11.601C3.05816 11.623 3.02828 11.6354 2.99711 11.6354ZM2.11586 11.4004H2.87961V8.31135C2.87961 8.28019 2.89199 8.2503 2.91403 8.22827C2.93607 8.20623 2.96595 8.19385 2.99711 8.19385H3.24974L2.49774 7.22565L1.74574 8.19385H1.99836C2.02953 8.19385 2.05941 8.20623 2.08145 8.22827C2.10348 8.2503 2.11586 8.28019 2.11586 8.31135V11.4004Z" fill="#093F68"/>
<path d="M22.0157 2.27148L20.4388 4.29953H21.2214V15.9755H22.81V4.29953H23.5925L22.0157 2.27148Z" fill="#70CC40"/>
<path d="M22.81 16.0931H21.2214C21.1902 16.0931 21.1603 16.0808 21.1383 16.0587C21.1163 16.0367 21.1039 16.0068 21.1039 15.9756V4.41716H20.4388C20.4168 4.41721 20.3952 4.41106 20.3765 4.39943C20.3578 4.38779 20.3428 4.37114 20.3331 4.35136C20.3247 4.33238 20.3214 4.31151 20.3237 4.29087C20.326 4.27023 20.3337 4.25056 20.346 4.23386L21.9229 2.20464C21.9339 2.19049 21.9479 2.17903 21.964 2.17115C21.9801 2.16328 21.9978 2.15918 22.0157 2.15918C22.0336 2.15918 22.0513 2.16328 22.0674 2.17115C22.0835 2.17903 22.0975 2.19049 22.1085 2.20464L23.6854 4.23386C23.6977 4.25056 23.7054 4.27023 23.7077 4.29087C23.71 4.31151 23.7067 4.33238 23.6983 4.35136C23.6886 4.37114 23.6736 4.38779 23.6549 4.39943C23.6362 4.41106 23.6146 4.41721 23.5925 4.41716H22.9275V15.9756C22.9275 16.0068 22.9151 16.0367 22.8931 16.0587C22.871 16.0808 22.8412 16.0931 22.81 16.0931ZM21.3401 15.8581H22.6925V4.29966C22.6925 4.2685 22.7049 4.23861 22.7269 4.21658C22.7489 4.19454 22.7788 4.18216 22.81 4.18216H23.3528L22.0157 2.46314L20.6785 4.18216H21.2214C21.2526 4.18216 21.2824 4.19454 21.3045 4.21658C21.3265 4.23861 21.3389 4.2685 21.3389 4.29966L21.3401 15.8581Z" fill="#093F68"/>
</svg>
